<?xml version="1.0" encoding="UTF-8"?>
<svg width="150px" height="134px" viewBox="0 0 150 134" version="1.1" xmlns="http://www.w3.org/2000/svg" xmlns:xlink="http://www.w3.org/1999/xlink">
    <!-- Generator: Sketch 59 (86127) - https://sketch.com -->
    <title>food-optimization</title>
    <desc>Created with Sketch.</desc>
    <g id="Page-1" stroke="none" stroke-width="1" fill="none" fill-rule="evenodd">
        <g id="food-optimization">
            <polyline id="Path" stroke="#15192E" stroke-width="2" points="39.7222 40 26 40 26 53.7222"></polyline>
            <polyline id="Path" stroke="#15192E" stroke-width="2" points="64 53.7222 64 40 50.2778 40"></polyline>
            <polyline id="Path" stroke="#15192E" stroke-width="2" points="50.2778 78 64 78 64 64.2778"></polyline>
            <polyline id="Path" stroke="#15192E" stroke-width="2" points="26 64.2778 26 78 39.7222 78"></polyline>
            <polyline id="Path" stroke="#15192E" stroke-width="2" points="97.944 88 90 88 90 95.944"></polyline>
            <polyline id="Path" stroke="#15192E" stroke-width="2" points="112 95.944 112 88 104.056 88"></polyline>
            <polyline id="Path" stroke="#15192E" stroke-width="2" points="104.056 110 112 110 112 102.056"></polyline>
            <polyline id="Path" stroke="#15192E" stroke-width="2" points="90 102.056 90 110 97.944 110"></polyline>
            <path d="M103.489,97 C102.902,95.239 100.798,95.532 99.82,95.899 C99.331,96.266 98.279,97.366 97.986,98.834 C97.619,100.668 99.82,100.301 102.021,101.402 C104.222,102.503 104.222,99.201 103.489,97 Z" id="Path" fill="#D8D8D8" fill-rule="nonzero"></path>
            <path d="M48.4131,56.8385 C47.6282,54.4906 44.8153,54.8819 43.507,55.3711 C42.8528,55.8602 41.4464,57.3277 41.0539,59.2844 C40.5633,61.7303 43.507,61.2411 46.4507,62.7085 C49.3944,64.176 49.3944,59.7735 48.4131,56.8385 Z" id="Path" fill="#D8D8D8" fill-rule="nonzero"></path>
            <path d="M28.5549,111.379 C27.7549,109.618 24.8883,109.911 23.5549,110.278 C22.8883,110.645 21.4549,111.746 21.0549,113.213 C20.5549,115.048 23.5549,114.681 26.5549,115.781 C29.5549,116.882 29.5549,113.58 28.5549,111.379 Z" id="Path" fill-opacity="0.5" fill="#7BB7EF" fill-rule="nonzero"></path>
            <path d="M59.5549,98.879 C58.7549,96.479 55.8883,96.879 54.5549,97.379 C53.8883,97.879 52.4549,99.379 52.0549,101.379 C51.5549,103.879 54.5549,103.379 57.5549,104.879 C60.5549,106.379 60.5549,101.879 59.5549,98.879 Z" id="Path" fill-opacity="0.5" fill="#7BB7EF" fill-rule="nonzero"></path>
            <path d="M70.5197,126.004 C68.2179,125.094 66.715,127.494 66.2513,128.808 C66.2067,129.622 66.4296,131.639 67.6769,133.197 C69.2362,135.144 70.7479,132.581 73.7586,131.276 C76.7693,129.971 73.3968,127.141 70.5197,126.004 Z" id="Path" fill-opacity="0.2" fill="#7BB7EF" fill-rule="nonzero"></path>
            <path d="M9.5549,76.8793 C8.7549,74.4793 5.88825,74.8793 4.55492,75.3793 C3.88825,75.8793 2.45492,77.3793 2.05492,79.3794 C1.55492,81.8795 4.55492,81.3794 7.5549,82.8794 C10.5549,84.379 10.5549,79.8793 9.5549,76.8793 Z" id="Path" fill-opacity="0.2" fill="#7BB7EF" fill-rule="nonzero"></path>
            <path d="M89.5549,61.8792 C88.7549,59.4792 85.8883,59.8792 84.5549,60.3792 C83.8883,60.8792 82.4549,62.3792 82.0549,64.3793 C81.5549,66.8794 84.5549,66.3793 87.5549,67.8793 C90.5549,69.3793 90.5549,64.8792 89.5549,61.8792 Z" id="Path" fill-opacity="0.5" fill="#7BB7EF" fill-rule="nonzero"></path>
            <path d="M36.5549,12.8792 C35.7549,10.4792 32.8883,10.8792 31.5549,11.3792 C30.8883,11.8792 29.4549,13.3792 29.0549,15.3793 C28.5549,17.8794 31.5549,17.3793 34.5549,18.8793 C37.5549,20.3793 37.5549,15.8792 36.5549,12.8792 Z" id="Path" fill-opacity="0.5" fill="#7BB7EF" fill-rule="nonzero"></path>
            <path d="M137.696,102.919 C137.304,101.745 135.902,101.941 135.25,102.186 C134.924,102.43 134.223,103.164 134.027,104.142 C133.782,105.365 135.25,105.121 136.717,105.854 C138.185,106.588 138.185,104.387 137.696,102.919 Z" id="Path" fill-opacity="0.5" fill="#7BB7EF" fill-rule="nonzero"></path>
            <path d="M149.391,78.8385 C148.608,76.4906 145.804,76.8819 144.5,77.3711 C143.847,77.8602 142.445,79.3277 142.054,81.2844 C141.565,83.7303 144.5,83.2411 147.434,84.709 C150.369,86.176 150.369,81.7735 149.391,78.8385 Z" id="Path" fill-opacity="0.2" fill="#7BB7EF" fill-rule="nonzero"></path>
            <path d="M120.696,69.9193 C120.304,68.7453 118.902,68.941 118.25,69.1855 C117.924,69.4301 117.223,70.1639 117.027,71.1422 C116.782,72.3652 118.25,72.1205 119.717,72.8543 C121.185,73.588 121.185,71.3867 120.696,69.9193 Z" id="Path" fill-opacity="0.5" fill="#7BB7EF" fill-rule="nonzero"></path>
            <path d="M4.61943,42.149 C4.13027,40.6815 2.37746,40.9261 1.5622,41.2318 C1.15457,41.5375 0.27816,42.4547 0.03358,43.6776 C-0.27214,45.2063 1.5622,44.9005 3.39654,45.8177 C5.23087,46.7349 5.23087,43.9833 4.61943,42.149 Z" id="Path" fill-opacity="0.2" fill="#7BB7EF" fill-rule="nonzero"></path>
            <path d="M127.24,36.0426 C124.245,37.1914 122.068,40.5033 122.082,43.6076 C122.085,44.1396 122.728,44.2323 123.003,43.7767 C124.332,41.4651 126.481,41.3227 128.001,42.892 C128.583,43.4912 129.737,43.8301 130.595,43.7943 C132.808,43.7084 134.025,44.5565 134.334,46.756 C134.4,47.1971 134.455,47.6351 134.51,48.0732 C134.564,48.5112 134.619,48.9492 134.686,49.3903 C134.953,51.1849 134.869,52.9248 134.103,54.5996 C134.01,54.8048 133.955,55.026 133.901,55.2441 C133.898,55.2586 133.894,55.273 133.891,55.2874 C133.869,55.3743 133.896,55.4669 133.97,55.5164 C134.058,55.5745 134.175,55.5593 134.252,55.4873 C134.294,55.4476 134.337,55.4079 134.38,55.368 C134.658,55.1086 134.94,54.8447 135.187,54.5655 C137.939,51.385 138.387,47.5868 138.052,43.5786 C138.004,43.0284 137.929,42.4776 137.853,41.9264 C137.73,41.034 137.607,40.1402 137.605,39.2451 C137.602,38.5108 137.821,37.7878 138.038,37.0715 C138.116,36.8168 138.193,36.5629 138.26,36.3097 C138.332,36.0205 138.436,35.7415 138.54,35.464 C138.695,35.0509 138.849,34.6411 138.893,34.2053 C139.368,29.6662 138.276,25.3861 135.541,21.8369 C130.004,14.652 123.356,10.4265 114.398,8.6644 C114.258,8.6308 114.011,8.547 113.728,8.4508 C113.225,8.2803 113.084,7.5572 113.509,7.2391 C113.837,6.9935 114.152,6.7602 114.462,6.5314 C115.178,6.002 115.039,4.9049 114.236,4.5192 C113.617,4.2221 113.03,3.9101 112.728,3.6703 C111.99,3.0832 111.629,2.6262 111.235,2.1263 C110.94,1.7535 110.627,1.3568 110.125,0.8646 C109.271,0.0252 108.872,-0.0719 108.265,0.8089 C106.39,3.5451 103.769,5.4807 101.081,7.3297 C100.229,7.9083 99.182,8.2872 98.167,8.468 C91.8535,9.5514 86.1111,11.7625 81.4426,16.3389 C79.6554,18.1044 78.2627,20.1331 77.3264,22.4516 C77.1815,22.777 77.1623,23.4118 77.3704,23.5955 C77.5804,23.8094 78.1638,23.7295 78.5348,23.6321 C78.8241,23.5561 79.0839,23.4182 79.3472,23.2784 C79.5421,23.1749 79.7409,23.3306 79.5951,23.4963 C79.5911,23.5007 79.5872,23.5051 79.5833,23.5096 C78.5409,24.6576 78.5561,25.1244 80.0203,25.5958 C81.7931,26.1696 83.6381,26.6939 85.4878,26.8256 C89.6223,27.0482 93.7712,27.0286 97.92,27.0089 C99.203,27.0083 100.142,27.2996 101.095,28.254 C101.888,29.0569 102.783,29.6731 103.777,30.1315 C105.056,30.7214 105.84,29.1924 104.831,28.2093 C104.451,27.8386 104.653,27.1932 105.176,27.1048 C108.06,26.6177 110.892,26.1336 113.724,25.6495 C113.88,25.6229 114.035,25.5963 114.191,25.5697 C115.376,25.3672 116.541,25.9293 117.215,26.9247 C118.145,28.2994 119.027,29.179 120.669,30.0027 C121.086,30.2117 121.489,29.6921 121.894,29.4603 C122.401,29.1696 121.64,28.5884 121.174,28.2357 C120.607,27.8072 120.114,27.0381 119.633,26.2895 C119.217,25.6411 119.605,24.6489 120.373,24.5798 C121.001,24.5232 121.626,24.5075 122.241,24.5715 C125.399,24.867 128.537,25.3147 131.092,27.4865 C133.696,29.7007 133.305,32.0473 131.138,34.2426 C130.708,34.6776 130.095,34.9503 129.493,35.2183 C129.34,35.286 129.189,35.3533 129.041,35.4229 C128.714,35.572 128.368,35.6776 128.019,35.7842 C127.76,35.8636 127.498,35.9436 127.24,36.0426 Z M86.3244,20.6698 C86.8687,20.0534 86.8103,19.1125 86.1939,18.5682 C85.5776,18.0238 84.6366,18.0822 84.0923,18.6986 C83.548,19.3149 83.6063,20.2559 84.2227,20.8002 C84.8391,21.3445 85.78,21.2862 86.3244,20.6698 Z" id="Shape" fill="#15192E"></path>
        </g>
    </g>
</svg>